<svg width="30" height="30" viewBox="0 0 30 30" fill="none" xmlns="http://www.w3.org/2000/svg">
<path d="M25.3354 7.85425C25.0559 7.13675 24.6831 6.52811 24.0764 5.92175C23.4696 5.31493 22.8628 4.9422 22.1446 4.66379C21.4492 4.39402 20.656 4.21016 19.4947 4.15697M25.3354 7.85425L24.869 8.03455C24.8692 8.03487 24.8693 8.0352 24.8694 8.03552M25.3354 7.85425L24.8695 8.03576C24.8695 8.03568 24.8695 8.0356 24.8694 8.03552M25.3354 7.85425C25.6036 8.54788 25.7877 9.34061 25.8422 10.502M24.8694 8.03552C24.6131 7.37765 24.277 6.82906 23.7229 6.27543L23.7228 6.27529C23.1683 5.72078 22.6215 5.38493 21.9639 5.12999L21.9638 5.12995C21.3249 4.88213 20.586 4.70749 19.4719 4.65646L19.4947 4.15697M24.8694 8.03552C25.1156 8.67265 25.2903 9.41118 25.3427 10.5245M19.4947 4.15697L19.4718 4.65645M19.4947 4.15697C18.3315 4.10404 17.9609 4.09107 15.0005 4.09106V4.59106M19.4718 4.65645L15.0005 4.59106M19.4718 4.65645C18.3201 4.60404 17.9582 4.59107 15.0005 4.59106M19.4718 4.65645L15.0005 4.59106M25.3427 10.5245C25.3427 10.5245 25.3427 10.5244 25.3427 10.5244L25.8422 10.502M25.3427 10.5245C25.3945 11.6771 25.4081 12.0404 25.4081 15.0002C25.4081 17.9597 25.3945 18.3223 25.3427 19.4747M25.3427 10.5245C25.3427 10.5248 25.3427 10.5251 25.3428 10.5254L25.8422 10.502M25.8422 10.502C25.8945 11.6656 25.9081 12.0374 25.9081 15.0002C25.9081 17.9629 25.8945 18.3338 25.8422 19.4974M25.3427 19.4747C25.3427 19.4744 25.3427 19.4742 25.3428 19.474L25.8422 19.4974M25.3427 19.4747C25.2904 20.5878 25.1156 21.3266 24.8693 21.9641M25.3427 19.4747C25.3427 19.4748 25.3427 19.4749 25.3427 19.475L25.8422 19.4974M25.8422 19.4974C25.7877 20.6583 25.6036 21.4513 25.3354 22.1452M24.8693 21.9641C24.8694 21.9639 24.8695 21.9638 24.8695 21.9636L25.3354 22.1452M24.8693 21.9641C24.613 22.6217 24.2769 23.1702 23.7229 23.7237L23.7226 23.7241C23.1688 24.2785 22.621 24.6153 21.9642 24.8704L21.9641 24.8705C21.3269 25.1182 20.5876 25.2928 19.4734 25.3439M24.8693 21.9641C24.8692 21.9644 24.8691 21.9646 24.869 21.9649L25.3354 22.1452M25.3354 22.1452L19.4734 25.3439M19.4734 25.3439C18.3212 25.3963 17.9593 25.4092 14.9991 25.4092C12.0393 25.4092 11.6766 25.3963 10.5243 25.3439L10.5015 25.8433L19.4734 25.3439ZM19.4734 25.3439L19.4963 25.8433M19.4734 25.3439C19.4734 25.3439 19.4735 25.3439 19.4735 25.3439L19.4963 25.8433M19.4963 25.8433C20.6576 25.7902 21.4512 25.6063 22.1453 25.3365L19.4963 25.8433ZM8.03604 5.12979L8.0358 5.12988C7.37823 5.38525 6.8297 5.72129 6.27598 6.27523L6.27578 6.27543C5.72168 6.82913 5.38553 7.3778 5.12917 8.03558L5.12917 8.0356C4.88096 8.67239 4.70614 9.4107 4.656 10.5241L8.03604 5.12979ZM8.03604 5.12979C8.67277 4.88214 9.41107 4.70749 10.5252 4.65646L8.03604 5.12979ZM19.4312 5.62022L19.4314 5.62022C20.5501 5.67138 21.1808 5.8607 21.6149 6.02929L21.615 6.0293C22.1881 6.25192 22.61 6.52639 23.0412 6.95785C23.4727 7.38936 23.7469 7.81185 23.9698 8.38446L23.9699 8.38467C24.1385 8.81846 24.3281 9.44918 24.379 10.5681L24.379 10.5681C24.4318 11.7296 24.4432 12.084 24.4432 14.9977C24.4432 17.9113 24.4318 18.2657 24.379 19.4272L24.379 19.4273C24.3279 20.5461 24.1386 21.1768 23.9699 21.6106C23.7472 22.1841 23.4721 22.6054 23.0411 23.0362C23.0411 23.0362 23.041 23.0363 23.041 23.0363L22.6875 22.6827L19.4312 5.62022ZM19.4312 5.62022C18.2694 5.56741 17.915 5.55697 15.0005 5.55697C14.8752 5.55697 14.7543 5.55692 14.6378 5.55687C14.5987 5.55685 14.56 5.55683 14.5219 5.55682V5.55369L14.0213 5.55425C11.9834 5.55652 11.5857 5.57024 10.5699 5.61612L10.5695 5.61614M19.4312 5.62022L10.5695 5.61614M10.5695 5.61614C9.45139 5.6675 8.82034 5.85619 8.38543 6.02581L10.5695 5.61614ZM4.65621 19.4744C4.604 18.3221 4.59082 17.9601 4.59082 15.0002C4.59082 12.0404 4.60444 11.6768 4.65599 10.5242L4.65621 19.4744ZM4.15673 19.4972L4.65622 19.4746L4.15673 19.4972ZM5.12957 21.9638L4.66353 22.1449L5.12958 21.9638C5.12958 21.9638 5.12957 21.9638 5.12957 21.9638ZM10.5253 4.65645C11.6771 4.60404 12.0403 4.59107 14.9971 4.59106L10.5253 4.65645ZM19.4314 24.3739C20.5489 24.3228 21.1803 24.1343 21.6149 23.9647L8.38511 6.02593C7.81263 6.24884 7.39021 6.52309 6.95875 6.95456C6.52741 7.38592 6.2525 7.80846 6.02989 8.38164L6.02988 8.38168C5.8613 8.81585 5.67198 9.44647 5.62083 10.5653L5.62082 10.5654C5.56802 11.7271 5.55758 12.0798 5.55758 14.9949C5.55758 17.91 5.56802 18.2646 5.62082 19.4263L5.62082 19.4263C5.67174 20.5452 5.86132 21.1759 6.02995 21.6097L6.03001 21.6099C6.25306 22.1831 6.52745 22.6047 6.95875 23.036C7.39029 23.4675 7.81288 23.7419 8.38579 23.9644L8.38592 23.9645C8.8202 24.133 9.4507 24.3223 10.5694 24.3739L10.5697 24.374C11.7312 24.4267 12.0854 24.4381 15.0005 24.4381C17.9154 24.4381 18.2698 24.4267 19.4312 24.374L19.4314 24.3739ZM20.0144 9.17697C20.0144 8.73043 20.3767 8.36834 20.8235 8.36834C21.2703 8.36834 21.6325 8.7306 21.6325 9.17697C21.6325 9.62357 21.27 9.98606 20.8235 9.98606C20.3769 9.98606 20.0144 9.62357 20.0144 9.17697ZM9.89839 15.0002C9.89839 12.1824 12.1829 9.89788 15.0005 9.89788C17.818 9.89788 20.1017 12.1823 20.1017 15.0002C20.1017 17.8179 17.8181 20.1013 15.0005 20.1013C12.1827 20.1013 9.89839 17.8178 9.89839 15.0002ZM19.1367 15.0002C19.1367 12.7156 17.2847 10.8638 15.0005 10.8638C12.716 10.8638 10.8642 12.7156 10.8642 15.0002C10.8642 17.2844 12.716 19.1365 15.0005 19.1365C17.2848 19.1365 19.1367 17.2845 19.1367 15.0002Z" fill="white" stroke="#C3D5CE"/>
</svg>
