<svg width="24" height="25" viewBox="0 0 24 25" fill="none" xmlns="http://www.w3.org/2000/svg">
<path d="M7.57758 24.8969C16.5744 24.8969 21.4944 15.3584 21.4944 7.08696C21.4944 6.81603 21.4901 6.54633 21.4806 6.27785C22.4356 5.3943 23.2657 4.2917 23.9204 3.03653C23.044 3.53505 22.1009 3.87065 21.1115 4.02198C22.1214 3.24704 22.8966 2.02118 23.2624 0.559814C22.3174 1.27679 21.2708 1.79789 20.1565 2.07923C19.2639 0.86255 17.9932 0.101562 16.5862 0.101562C13.885 0.101562 11.6946 2.90481 11.6946 6.36022C11.6946 6.85141 11.7376 7.32919 11.8215 7.78748C7.75628 7.52571 4.15156 5.03491 1.73908 1.24749C1.31902 2.17253 1.0768 3.24707 1.0768 4.39361C1.0768 6.56528 1.94032 8.48244 3.25344 9.604C2.45096 9.57228 1.69712 9.29036 1.03824 8.82113C1.03752 8.84739 1.03752 8.873 1.03752 8.90106C1.03752 11.9325 2.72352 14.4635 4.9616 15.0371C4.55059 15.1805 4.11816 15.2573 3.67184 15.2573C3.35715 15.2573 3.05056 15.2177 2.75256 15.1445C3.37526 17.6316 5.18096 19.4414 7.32176 19.492C5.64768 21.1712 3.5388 22.1714 1.2468 22.1714C0.852482 22.1714 0.462934 22.1427 0.0800781 22.0847C2.2448 23.8604 4.8152 24.8965 7.57784 24.8965" fill="#C3D5CE"/>
</svg>
